<?xml version="1.0" encoding="UTF-8" standalone="no"?>
<!DOCTYPE svg PUBLIC "-//W3C//DTD SVG 1.1//EN" "http://www.w3.org/Graphics/SVG/1.1/DTD/svg11.dtd">
<svg width="100%" height="100%" viewBox="0 0 2500 2500" version="1.1" xmlns="http://www.w3.org/2000/svg" xmlns:xlink="http://www.w3.org/1999/xlink" xml:space="preserve" xmlns:serif="http://www.serif.com/" style="fill-rule:evenodd;clip-rule:evenodd;stroke-linejoin:round;stroke-miterlimit:2;">
    <g transform="matrix(12.9698,0,0,12.9698,0,0)">
        <path d="M23.926,155.875C23.926,155.875 67.291,99.289 27.627,63.326C27.627,63.326 34.502,49.576 48.781,42.701C48.781,42.701 58.302,69.142 81.042,85.008C81.042,85.008 72.58,51.162 55.127,41.643C55.127,41.643 67.821,20.489 82.628,16.258C82.628,16.258 76.282,32.651 83.156,47.988L97.963,87.124C97.963,87.124 124.406,47.987 118.59,18.373C118.59,18.373 140.803,36.353 144.504,43.758C144.504,43.758 132.34,45.344 126.522,61.21C120.809,76.793 107.485,104.047 107.485,104.047C107.485,104.047 125.465,117.268 132.34,125.201C132.34,125.201 120.176,69.672 148.205,49.575C148.205,49.575 163.012,55.924 167.771,63.326C167.771,63.326 141.33,75.488 148.205,113.566C155.357,153.179 168.83,152.701 168.83,152.701C168.83,152.701 145.562,175.441 141.33,176.498C141.33,176.498 141.328,144.24 104.31,116.209L103.781,156.934C103.781,156.934 111.715,169.096 113.302,169.625C114.886,170.154 97.435,174.914 75.752,169.625C75.752,169.625 86.857,157.459 86.329,148.471C85.802,139.481 85.802,106.162 85.802,106.162C85.802,106.162 58.831,82.893 55.657,78.133C55.657,78.133 65.703,108.278 48.781,160.633L47.724,175.971C47.724,175.971 25.512,161.162 23.926,155.875Z"/>
    </g>
</svg>
